<svg width="20" height="19" viewBox="0 0 20 19" fill="none" xmlns="http://www.w3.org/2000/svg">
<path d="M15.3204 6.669V5.54167C15.3204 4.07193 14.7599 2.66238 13.7622 1.62312C12.7645 0.583853 11.4113 0 10.0004 0C8.58944 0 7.23628 0.583853 6.23858 1.62312C5.24089 2.66238 4.68039 4.07193 4.68039 5.54167V6.669C4.0035 6.97673 3.42737 7.48325 3.02245 8.12663C2.61753 8.77 2.40136 9.52235 2.40039 10.2917V15.0417C2.4016 16.0911 2.80234 17.0972 3.51472 17.8392C4.22709 18.5813 5.19294 18.9987 6.20039 19H13.8004C14.8078 18.9987 15.7737 18.5813 16.4861 17.8392C17.1984 17.0972 17.5992 16.0911 17.6004 15.0417V10.2917C17.5994 9.52235 17.3833 8.77 16.9783 8.12663C16.5734 7.48325 15.9973 6.97673 15.3204 6.669ZM10.7604 13.4583C10.7604 13.6683 10.6803 13.8697 10.5378 14.0181C10.3953 14.1666 10.202 14.25 10.0004 14.25C9.79883 14.25 9.60552 14.1666 9.46299 14.0181C9.32046 13.8697 9.24039 13.6683 9.24039 13.4583V11.875C9.24039 11.665 9.32046 11.4637 9.46299 11.3152C9.60552 11.1667 9.79883 11.0833 10.0004 11.0833C10.202 11.0833 10.3953 11.1667 10.5378 11.3152C10.6803 11.4637 10.7604 11.665 10.7604 11.875V13.4583ZM13.8004 6.33333H6.20039V5.54167C6.20039 4.49185 6.60075 3.48503 7.31339 2.7427C8.02602 2.00037 8.99257 1.58333 10.0004 1.58333C11.0082 1.58333 11.9748 2.00037 12.6874 2.7427C13.4 3.48503 13.8004 4.49185 13.8004 5.54167V6.33333Z" fill="#041626" fill-opacity="0.4"/>
</svg>
